<svg width="498" height="498" viewBox="0 0 498 498" fill="none" xmlns="http://www.w3.org/2000/svg">
<g clip-path="url(#clip0_1558_15906)">
<rect width="498" height="498" rx="159.36" fill="black"/>
<path d="M216.892 194.103H193.032V220.378H216.892V194.103Z" fill="#EC6624"/>
<path d="M343.657 276.323H319.797V302.598H343.657V276.323Z" fill="#EC6624"/>
<path d="M377.465 194.061L297.376 194.04L278.168 194.061V262.682C278.168 278.502 264.256 289.67 248.739 289.963C231.491 290.298 216.85 280.115 216.85 262.242V241.562H158.056V194.061H130.713V241.583H115.717V241.666H68.7066V194.061H51.792V302.598H68.7066V256.962H130.671V302.598H158.014V256.941H193.678C193.219 281.058 206.693 303.897 250.324 303.959C296.876 304.022 305.49 277.077 305.49 259.246V209.42H361.969V302.598H389.312V209.357H446.208V194.061H377.444H377.465Z" fill="#EC6624"/>
</g>
<defs>
<clipPath id="clip0_1558_15906">
<rect width="498" height="498" fill="white"/>
</clipPath>
</defs>
</svg>
